<svg width="88" height="93" viewBox="0 0 88 93" fill="none" xmlns="http://www.w3.org/2000/svg">
<path d="M65.4353 79.0709C65.2045 78.8894 64.9146 78.8091 64.6217 78.8091H26.2088C25.8804 78.8091 25.558 78.946 25.3242 79.1781C25.0905 79.4131 24.9574 79.7404 24.9574 80.0707V83.6564C24.9574 84.0581 24.6349 84.3824 24.2355 84.3824H21.3835C20.9338 84.3824 20.57 84.7484 20.57 85.2007V87.8698C20.57 88.3221 20.2061 88.6881 19.7564 88.6881H14.6974C14.2477 88.6881 13.8838 89.0541 13.8838 89.5064V92.1756C13.8838 92.6279 14.2477 92.9939 14.6974 92.9939H76.1894C76.6391 92.9939 77.003 92.6279 77.003 92.1756V89.5064C77.003 89.0541 76.6391 88.6881 76.1894 88.6881H71.1304C70.6807 88.6881 70.3168 88.3221 70.3168 87.8698V85.2007C70.3168 84.7484 69.9529 84.3824 69.5032 84.3824H66.6512C66.2518 84.3824 65.9294 84.0581 65.9294 83.6564V80.0707C65.9294 79.6839 65.7548 79.3179 65.4412 79.0709H65.4353Z" fill="#0B2442"/>
<path d="M39.2893 40.4419L5.8112 72.1242C5.61745 72.3088 5.50528 72.5652 5.50018 72.8344C5.49508 73.1062 5.5996 73.3652 5.78826 73.5575L11.1368 78.9371C11.328 79.1294 11.5855 79.2345 11.8557 79.2294C12.1234 79.2242 12.3809 79.1114 12.5644 78.9165L44.0719 45.2522C44.439 44.8599 44.4288 44.2445 44.049 43.8624L40.6711 40.465C40.2912 40.0855 39.6794 40.0752 39.2893 40.4445V40.4419Z" fill="#0B2442"/>
<path d="M34.3564 30.2294L53.6041 49.586L66.7842 36.3269C66.9168 36.1961 67.0621 36.091 67.2049 35.9807L47.8833 16.5498C47.7737 16.6934 47.6692 16.8421 47.5392 16.9729L34.3564 30.232V30.2294Z" fill="#0B2442"/>
<path d="M67.2024 35.9832C67.0597 36.0935 66.9143 36.1986 66.7818 36.3293L53.6016 49.5884L53.4155 49.7756C51.8324 51.3679 51.8324 53.95 53.4155 55.5423C54.9987 57.1321 57.5659 57.1321 59.1465 55.5423L72.5127 42.0961C74.0959 40.5037 74.0959 37.9242 72.5127 36.3319C71.0621 34.8704 68.7907 34.7678 67.2024 35.9858V35.9832Z" fill="#7CA29A"/>
<path d="M41.8056 11.2085L28.4393 24.6522C26.8562 26.2445 26.8562 28.8266 28.4393 30.4189C30.0225 32.0087 32.5871 32.0087 34.1703 30.4189L34.3564 30.2292L47.5391 16.9701C47.6691 16.8393 47.7736 16.6932 47.8832 16.547C49.0942 14.9496 48.9897 12.6675 47.5391 11.206C45.9559 9.61364 43.3887 9.61364 41.8056 11.206V11.2085Z" fill="#7CA29A"/>
</svg>
