<svg width="186" height="63" viewBox="0 0 186 63" fill="none" xmlns="http://www.w3.org/2000/svg">
<g clip-path="url(#clip0_132_10330)">
<path d="M41.1244 52.0837C39.6446 52.4229 38.3036 52.1454 37.4559 53.0551C36.0224 52.8084 35.2363 53.4714 34.1881 53.9802C33.0167 54.5353 31.7527 55.1983 30.088 55.0595C29.1478 54.9824 28.1767 55.1212 27.2518 55.0286C25.6642 54.8745 24.6006 55.337 23.6142 56.1234C23.0284 56.5859 22.0573 56.4317 21.9186 55.8304C21.7337 55.0132 21.6258 55.0595 20.6238 55.4912C19.8069 55.8458 18.4505 55.5375 17.5256 55.8304C16.8474 56.0463 16.3234 56.4009 15.4602 56.3701C14.6278 56.3392 14.3041 56.2159 14.2887 55.6608C14.2425 54.8128 14.4583 53.9648 13.3793 53.2555C13.071 53.0397 13.2868 52.4075 14.1962 52.3767C14.4737 52.3767 14.9515 52.2842 14.9978 52.1762C15.1519 51.7753 15.2444 51.3282 15.2136 50.9119C15.1519 50.2952 14.4274 50.4185 13.8109 50.3723C13.1173 50.326 12.624 50.4648 12.177 50.8502C11.8225 51.1586 11.3601 51.4207 10.9747 51.6982C9.97282 51.1278 9.34085 50.6035 9.49499 49.6784C9.60288 49.0771 8.67805 48.7842 7.92276 49.2467C7.24455 49.663 6.59717 49.7709 5.81105 49.7093C5.5336 49.6939 5.25615 49.5859 4.9787 49.5242C5.07119 49.3701 5.16367 49.2005 5.27157 49.0617C5.41029 48.8767 5.73398 48.6916 5.70316 48.5375C5.6415 48.2599 5.39488 47.7974 5.16367 47.782C4.23883 47.6894 3.26775 47.6894 2.3275 47.7665C1.35643 47.8436 0.940249 47.3657 0.400761 47.011C-0.138726 46.641 -0.123312 46.2864 0.339106 45.8701C0.616557 45.6388 0.909421 45.3458 0.955663 45.0683C1.07897 44.4516 0.662798 43.6498 2.25043 43.7731C2.77451 43.1718 3.57603 42.6013 3.74559 41.9538C3.94597 41.2291 4.33132 41.0441 5.25615 41.1057C6.01144 40.3194 7.59907 39.9956 7.67614 38.8084C7.70697 38.4846 8.49308 38.1762 8.94008 37.8679C11.73 35.9097 14.5045 33.9516 17.3253 32.0088C18.2963 31.3458 19.067 30.5287 20.593 30.3128C21.1325 30.2357 21.9186 29.7423 21.8724 29.0639C21.8724 28.8943 22.1498 28.5551 22.2886 28.5551C23.8145 28.6013 24.4311 27.7225 25.2018 27.1057C25.8492 26.5815 26.142 25.8414 26.589 25.1938C27.2518 25.2093 27.5601 24.9934 27.5447 24.5309C28.1304 24.4383 28.7624 24.7005 29.3019 24.315C30.72 23.282 32.2151 22.326 33.587 21.2775C34.0648 20.9229 34.1419 20.1057 34.6351 19.9978C35.3904 19.8282 36.0378 19.6586 36.5464 19.2423C37.0551 18.826 37.5946 18.5176 38.4886 18.5176C38.8277 18.5176 39.136 18.0859 39.4905 17.8546C39.9838 17.5463 39.9683 17.5771 41.1552 17.793C42.2188 17.9934 43.2053 18.0551 44.0685 17.3458C44.4846 17.0066 45.4711 17.2225 45.5174 17.6388C45.6098 18.5485 46.3343 19.011 47.4287 19.2115C48.3844 19.3811 49.2013 19.1652 49.8949 18.5947C50.0799 18.4405 50.7889 18.5639 51.2668 18.5639V19.3811C51.2668 19.3811 51.3284 19.2886 51.2668 19.2423C51.1897 19.1961 50.9585 19.1961 50.866 19.2423C50.5577 19.3965 50.157 19.5815 50.7427 19.8128C50.8198 19.8436 51.0972 19.6278 51.2822 19.3811C52.7003 19.2269 54.1183 19.2269 55.5364 19.2423C55.6443 19.2423 55.8755 19.4119 55.8601 19.4582C55.783 19.6124 55.5672 19.8899 55.4902 19.8745C54.2725 19.6894 53.8101 20.8458 52.6078 20.6454C52.5307 20.6454 52.3303 20.7842 52.2995 20.8767C52.2841 20.9383 52.4228 21.0771 52.5461 21.0925C53.2552 21.2621 54.0567 21.2775 54.4883 21.8018C54.6887 21.6938 54.9661 21.6168 55.074 21.478C55.2744 21.2005 55.4131 20.6454 55.4902 20.6454C56.8004 20.7687 57.8023 19.9824 58.8658 19.9824C60.0835 19.967 60.7926 19.4273 61.7791 19.2115C63.5825 18.8106 65.016 17.7313 67.0969 17.8084C68.592 16.945 70.4571 16.5286 72.1681 15.9736C72.9388 15.7269 73.4782 14.9714 74.5726 15.2489C75.2354 14.4163 76.6689 14.8635 77.4088 14.4934C78.2566 14.0617 79.0735 14.0771 79.9213 13.8921C81.0157 13.6608 81.9251 12.8436 82.9886 12.7357C84.453 12.5969 85.6398 12.3194 86.5647 11.5176C86.7188 11.3789 87.1042 11.2709 87.3508 11.3018C88.3681 11.3943 89.0309 11.0242 89.8478 10.6696C90.5261 10.3767 91.5434 10.7005 92.4066 10.1608C92.9615 9.8216 94.1792 10.0529 95.0886 9.92953C95.9363 9.8216 96.4758 9.25112 97.5394 9.2357C99.4661 9.20486 101.085 9.63658 102.58 10.3458C103.428 10.7467 103.998 10.6696 104.537 10.1762C104.83 9.91411 105.077 9.85244 105.2 10.1762C105.74 11.5022 107.574 12.8128 105.431 14.2467C105.262 14.3546 105.293 14.6784 105.37 14.8789C105.755 15.8194 104.907 16.4978 104.414 17.4075C104.414 17.4538 104.476 17.315 104.414 17.2687C104.337 17.2225 104.106 17.2225 104.013 17.2687C103.705 17.4229 103.304 17.6079 103.89 17.8392C103.967 17.8701 104.244 17.6542 104.429 17.4075C104.738 17.2533 105.061 17.2533 105.37 17.2533C106.325 17.2842 106.711 16.3128 107.821 16.5749C108.745 16.7908 109.131 16.1278 109.793 15.9273C110.734 15.6498 112.013 15.5881 112.568 15.0947C113.462 14.3238 114.818 14.9405 115.497 14.4009C116.267 13.815 117.655 14.0463 118.163 13.2599C119.273 13.337 120.352 13.3216 121.092 12.5969C122.895 12.7511 124.19 11.9802 125.608 11.4097C126.487 11.0551 127.504 10.6542 128.444 10.6696C129.539 10.685 130.001 9.96037 130.895 9.96037C131.882 9.96037 132.236 9.00442 133.346 9.26654C134.271 9.4824 134.733 8.66521 135.319 8.66521C137.122 8.66521 138.417 8.00222 139.835 7.41632C140.698 7.06169 141.793 6.59914 142.656 6.69165C143.966 6.83041 144.398 5.68944 145.6 5.96698C146.54 4.96477 148.621 5.64319 149.561 4.64099C151.457 4.64099 153.338 4.64099 155.218 4.70266C155.372 4.70266 155.511 5.04187 155.635 5.22689C156.066 5.93614 156.236 5.95156 156.898 5.42733C157.099 5.25773 157.469 5.11896 157.5 4.94936C157.577 4.51764 157.423 4.02425 158.332 3.99341C158.933 3.99341 159.581 4.00883 160.12 4.16301C160.521 4.27094 160.937 4.57931 161.091 4.85684C161.168 5.01103 160.752 5.3194 160.521 5.55068C160.166 5.88988 159.503 6.22909 159.503 6.5683C159.503 7.27755 158.964 8.09473 160.012 8.74231C160.29 8.91191 160.475 9.52865 160.367 9.57491C159.349 10.022 159.642 10.978 158.748 11.456C158.132 11.7952 157.577 12.2115 157.068 12.6278C156.498 13.1057 155.604 13.3833 155.573 14.2005C155.573 14.6322 154.432 14.9251 154.694 15.5881C153.353 16.2049 153.03 17.3458 152.059 18.1476C151.997 18.1938 152.228 18.5639 152.351 18.5793C152.983 18.6256 153.939 18.7798 154.186 18.5639C155.018 17.8084 156.112 17.978 157.145 17.9009C157.87 16.8062 159.95 17.7621 160.721 16.7291C162.124 16.6983 163.526 16.652 164.929 16.6212C165.407 16.6212 165.885 16.5903 166.347 16.6212C167.21 16.6983 167.796 16.467 168.397 16.0507C168.598 15.9119 169.368 15.9736 169.615 16.1432C170.401 16.652 171.264 17.1916 171.711 17.8392C171.973 18.2401 172.559 18.5639 172.574 18.8877C172.574 19.1961 171.865 19.5044 171.465 19.8282C171.264 19.9824 171.079 20.1366 170.879 20.2908C171.326 20.5991 171.758 20.9229 172.22 21.2313C172.621 21.478 172.59 21.6168 172.266 21.956C171.465 22.7886 171.249 24.022 169.276 24.0066C168.706 24.4846 167.719 24.793 167.966 25.6256C168.166 26.304 167.734 26.6124 166.686 26.6124C166.486 26.6124 166.147 27.0749 166.116 27.337C166.054 27.6916 166.409 27.8767 166.979 27.9075C168.012 27.9692 169.091 27.6608 170.077 28.3084C170.925 28.8789 172.482 28.2005 173.145 28.6168C174.1 29.2335 175.133 29.0639 176.104 29.2952C176.844 29.4648 176.181 29.804 175.904 29.9582C175.519 30.1586 175.488 30.2665 175.904 30.4361C176.505 30.6983 176.443 31.1454 176.567 31.5771C176.813 32.3635 175.457 32.5793 175.549 33.304C175.626 33.8436 175.811 34.5991 175.395 34.8767C174.686 35.3701 174.825 36.0947 174.131 36.5264C173.977 36.6344 173.931 36.8194 173.838 36.9736C174.748 37.3282 175.703 37.0969 176.613 37.1586C177.414 37.2203 178.17 37.1894 178.694 36.6498C178.725 36.619 179.202 36.7115 179.326 36.8194C180.019 37.4824 181.283 36.8194 181.869 37.2974C182.624 37.9295 183.534 37.7753 184.428 37.8216C184.551 37.8216 184.782 37.9295 184.782 37.9758C184.782 38.13 184.736 38.3458 184.582 38.4383C184.12 38.7005 183.904 39.163 183.102 39.1476C182.193 39.1322 182.177 39.348 182.701 39.8568C183.503 40.6432 183.426 40.7049 181.992 41.1057C181.53 41.2445 181.222 41.3524 181.206 41.7687C181.206 42.185 181.484 42.4317 181.962 42.4163C182.717 42.4009 183.056 42.7555 183.503 43.0331C184.104 43.4031 184.104 43.511 183.287 43.9736C182.948 44.1586 182.547 44.3745 182.131 44.4053C181.36 44.4824 180.543 44.4824 179.773 44.4053C178.802 44.3128 178.293 44.7291 177.846 45.1454C177.507 45.4692 177.507 45.978 177.122 46.2401C176.736 46.5022 175.935 46.4868 175.565 46.7489C174.933 47.2269 173.145 46.8723 173.561 48.0903C173.576 48.152 173.33 48.3216 173.253 48.3062C171.758 48.0286 170.786 49.0463 169.415 49.0309C168.32 49.0309 167.241 48.9383 166.44 49.6784C166.347 49.7709 165.607 49.5705 165.222 49.4472C164.883 49.3392 164.729 48.9075 164.189 49.3238C163.912 49.5242 163.388 49.7247 163.018 49.6938C161.291 49.5551 159.781 50.0793 158.178 50.3106C157.222 50.4494 156.606 50.9582 155.742 51.0198C154.802 51.0969 153.847 51.0044 152.906 51.0507C152.506 51.0815 152.12 51.2974 151.719 51.4361C149.983 52.0426 148.426 52.351 147.049 52.3612C146.571 52.3612 146.093 52.3612 145.631 52.3612C144.999 52.3612 144.367 52.3612 143.735 52.3612C143.118 53.4405 141.346 52.6388 140.513 53.3018C140.02 53.6872 139.357 53.5485 138.849 53.7027C137.893 53.9956 137.554 52.6234 136.598 53.3789C135.951 53.8877 135.134 53.6256 134.394 53.6564C133.454 53.7027 132.498 53.6564 131.558 53.6718C130.911 53.6718 130.448 53.5022 129.878 53.3018C128.645 52.8546 127.242 52.6696 126.071 53.456C125.747 53.6718 125.608 53.7181 125.392 53.4251C125.331 53.3326 125.254 53.2247 125.269 53.1322C125.685 51.7908 124.807 50.8502 123.389 50.0176C122.664 49.5859 121.847 49.5859 121.215 49.7401C120.398 49.9405 119.782 50.4185 118.734 50.4031C118.086 50.4031 117.439 50.9582 116.761 50.989C115.79 51.0353 115.065 51.2203 114.264 51.6366C113.647 51.9604 112.506 51.4978 111.72 52.1454C111.042 52.7159 109.47 51.9295 108.853 52.8701C107.928 52.9163 107.019 52.9626 106.094 53.0088C105.955 53.0088 105.724 53.0397 105.693 53.1013C105.015 54.119 103.243 53.2709 102.441 54.0264C101.763 54.674 100.499 53.9648 99.8977 54.5044C99.1579 55.1828 98.2022 55.0132 97.3236 54.967C95.8901 54.8899 95.0423 56 93.4239 55.6916C92.1291 55.4449 91.0964 56.6938 89.6012 56.3546C88.1215 57.2798 86.6263 57.1872 85.0541 56.4317C84.7767 56.293 84.0214 56.3084 83.821 56.4626C82.4954 57.4802 80.8307 56.8943 79.3664 56.9097C78.8577 56.9097 78.2411 56.2467 77.8404 55.7996C77.6246 55.5529 77.9175 55.1366 77.7787 54.8282C77.4088 53.9494 75.4204 53.2093 74.4647 53.7489C73.7095 54.1652 72.7846 54.1961 72.1064 54.6278C71.7981 54.8128 71.3203 54.9207 70.9041 54.967C68.1296 55.2908 66.9273 55.63 65.3397 56.7555C64.5382 57.326 63.7829 57.7731 62.5189 57.6652C62.1798 57.6344 61.7174 57.9427 61.4245 58.1586C60.361 58.945 58.9583 59.5771 57.5402 59.5463C56.2609 59.5154 55.8601 60.5331 54.6116 60.3018C53.2706 60.0551 52.9006 61.1652 51.9604 61.3811C50.7119 61.674 49.4633 61.9978 48.1994 62.2291C47.0125 62.4295 45.6869 62.3062 44.423 62.2599C43.5906 62.2291 43.0049 62.4295 42.3421 62.7996C41.6176 63.2005 40.2304 62.5837 39.9683 61.859C41.7255 60.9185 39.6601 60.7181 39.2747 60.2401C38.9356 59.8084 38.6736 59.4383 39.2131 59.1146C39.8296 58.7445 39.7834 58.5595 39.2285 58.1432C38.5811 57.6344 38.8277 57.1718 39.7525 56.9868C40.1687 56.9097 40.6466 56.9405 40.662 56.5551C40.662 56.478 40.1841 56.3392 39.9067 56.3084C39.4443 56.2621 38.951 56.3392 38.4886 56.2775C38.3345 56.2621 38.1187 55.8921 38.1495 55.8612C39.2593 55.2445 39.7525 54.3348 40.5232 53.5639C40.9548 53.1168 40.6928 52.7313 41.0936 52.0066C41.186 51.8062 40.9702 51.8987 40.8315 52.0066C40.7699 52.0683 40.7699 52.2379 40.8315 52.2842C40.9086 52.3304 41.1398 52.3304 41.2323 52.2842C41.4173 52.1762 41.556 52.0375 41.6639 51.8987C41.6793 51.8679 41.4789 51.7599 41.0936 51.9912L41.1244 52.0837ZM27.5601 30.7908V30.5132C27.1131 30.5132 26.6661 30.467 26.2345 30.5132C26.0496 30.5441 25.8954 30.7445 25.7567 30.8987C25.7413 30.9141 25.9262 31.0683 26.0496 31.0991C26.6353 31.2225 27.1902 31.2225 28.0996 29.8965C27.9146 30.0044 27.6988 30.0969 27.5601 30.2203C27.4985 30.282 27.4985 30.4516 27.5601 30.4978C27.6372 30.5441 27.8684 30.5441 27.9609 30.4978C28.1458 30.3899 28.2846 30.2511 28.3925 30.1124C28.4079 30.0815 28.2075 29.9736 27.5447 30.8062L27.5601 30.7908ZM64.569 45.5771C64.569 45.685 64.5382 45.793 64.569 45.9009C64.7231 46.4097 65.5863 46.4714 65.8638 46.9494C66.0179 47.2269 66.4649 47.4427 66.8348 47.6278C66.9119 47.674 67.2664 47.4582 67.4668 47.3502C67.698 47.2115 67.9601 47.0727 68.1142 46.8877C68.8695 46.0088 67.8522 44.467 66.5111 44.4053C65.9562 44.3745 64.7231 45.1146 64.5536 45.5617L64.569 45.5771ZM36.0994 44.6057C36.269 43.7731 35.2671 43.4648 34.5735 43.1256C34.0494 42.8634 33.4174 43.2181 33.0167 43.5881C32.9242 43.6652 32.7854 43.7115 32.6467 43.7577C31.0591 44.2974 30.982 44.467 31.9839 45.1762C32.5234 45.5771 33.0629 45.978 33.664 46.3326C33.8644 46.4405 34.2806 46.456 34.5426 46.3943C35.3904 46.2093 36.1611 45.2687 36.0994 44.6057ZM48.4306 41.7533C48.4306 41.5375 48.4152 41.3216 48.4306 41.1057C48.4922 40.4736 47.8757 40.4427 47.2283 40.4427C45.9027 40.4119 45.5944 40.5353 45.579 41.1212C45.579 41.5529 45.6098 42 45.579 42.4317C45.5328 43.0639 46.1339 43.0947 46.7813 43.0947C48.1069 43.1256 48.3998 43.0022 48.4306 42.4163C48.4306 42.2005 48.4306 41.9846 48.4306 41.7687V41.7533ZM40.8624 44.0969C40.6928 43.9736 40.5695 43.9119 40.477 43.8194C39.8604 43.2952 39.1822 42.9251 38.1033 43.0639C37.6562 43.1256 37.2247 43.1101 37.1938 43.4802C37.1938 43.5573 37.6717 43.7115 37.9337 43.7269C38.3961 43.7577 38.8277 43.7731 38.7661 44.174C38.7506 44.2665 38.2728 44.3436 37.9954 44.4053C36.978 44.6212 36.9472 44.652 37.5638 45.0991C37.8566 45.315 38.1957 45.5 38.4115 45.6388C39.2593 45.0991 40.0608 44.6057 40.8624 44.0969ZM41.7718 39.1013C41.7872 38.5617 41.9567 38.0066 41.1552 37.6674C40.7545 37.4978 40.5695 36.9119 39.845 37.4516C38.8585 38.1916 38.6582 38.5309 39.2747 39.0088C39.583 39.2401 39.8604 39.5485 40.2612 39.6564C40.6003 39.7643 41.109 39.7027 41.4789 39.6101C41.6485 39.5639 41.6947 39.2709 41.7718 39.1013ZM71.7211 37.7445C71.5515 37.8679 71.459 37.945 71.3357 38.0066C70.3492 38.4846 70.1026 39.1476 70.2413 39.9339C70.3184 40.3502 71.1662 40.6586 71.6286 40.4273C71.9985 40.2423 72.3068 40.011 72.6151 39.7643C73.2933 39.2401 73.2933 39.0242 72.6151 38.4383C72.3222 38.1916 72.0139 37.9758 71.7056 37.7445H71.7211ZM14.7049 39.1168C14.9823 39.0859 15.4448 39.0859 15.8455 38.9626C16.3234 38.8238 16.3079 37.5132 15.8455 37.2203C15.753 37.1586 15.5835 37.1124 15.4602 37.1124C14.5508 37.0969 13.5334 37.7137 13.3485 38.4538C13.3022 38.6234 13.4872 38.8855 13.6876 38.978C13.9034 39.0859 14.2579 39.0551 14.7203 39.1013L14.7049 39.1168ZM18.3734 53.5793C19.2212 53.2864 20.0844 53.0088 20.9013 52.6696C21.04 52.6079 21.0092 52.2379 20.9013 52.0529C20.7934 51.8987 20.4851 51.7137 20.2385 51.6982C19.3291 51.652 18.4042 52.2071 18.1114 53.0088C18.0497 53.163 18.2809 53.3789 18.3888 53.5639L18.3734 53.5793ZM53.6405 56.3392C54.1646 55.9846 54.627 55.522 55.521 55.6762C55.5981 55.6762 55.8139 55.5529 55.8293 55.4758C55.8755 55.1828 55.9526 54.8745 55.8601 54.6123C55.8139 54.489 55.3515 54.3502 55.1202 54.3811C54.0875 54.5198 53.3014 55.1057 53.1935 55.8304C53.1781 55.9846 53.471 56.1696 53.6251 56.3546L53.6405 56.3392ZM63.6133 43.4031C63.6133 43.2952 63.5979 43.1872 63.6133 43.0793C63.7058 42.663 63.3513 42.4934 62.8735 42.4317C62.1798 42.3392 61.7482 42.5859 61.7174 43.1101C61.702 43.4339 61.6403 43.7731 61.7482 44.0815C61.7945 44.2203 62.2261 44.4207 62.4419 44.3899C62.8426 44.359 63.2896 44.2203 63.5825 44.0353C63.7366 43.9273 63.6133 43.619 63.6133 43.4031ZM27.5293 34.445C27.3135 34.5375 26.7432 34.6454 26.6661 34.8458C26.512 35.2467 26.589 35.6938 26.6507 36.1256C26.6507 36.2027 27.1748 36.3723 27.2518 36.326C27.7143 36.0485 28.1459 35.7401 28.5004 35.4163C28.8241 35.1234 28.3 34.522 27.5293 34.4604V34.445ZM16.1846 42.6013C16.1846 41.9229 15.753 41.6608 15.0132 41.7533C14.5353 41.815 14.2271 41.9846 14.2733 42.4009C14.335 42.8943 14.7203 43.1872 15.4448 43.0485C15.7839 42.9868 16.0305 42.6938 16.1846 42.5859V42.6013ZM94.2562 42.4163C94.4104 42.3084 94.8111 42.1388 94.9036 41.9075C95.104 41.3987 94.6878 41.1212 93.9788 41.0903C93.3931 41.0595 93.1464 41.2753 93.0539 41.6146C92.9152 42.1388 93.2852 42.4317 94.2562 42.4317V42.4163ZM23.275 47.0573C23.5833 47.0573 23.9224 47.1035 24.1845 47.0419C24.3694 46.9956 24.4773 46.7798 24.5544 46.6256C24.5698 46.5793 24.354 46.4097 24.2461 46.4097C23.6296 46.3943 23.013 46.3789 22.3965 46.4097C22.2577 46.4097 22.1036 46.6718 22.0419 46.826C22.0265 46.8723 22.2269 47.0264 22.3502 47.0419C22.6585 47.0727 22.9668 47.0419 23.275 47.0419V47.0573ZM33.2324 34.6146C33.1862 34.337 32.955 34.0595 32.7854 33.782C32.6313 34.0595 32.3847 34.3216 32.3384 34.6146C32.3076 34.7687 32.6159 34.9538 32.7854 35.1079C32.9396 34.9383 33.2479 34.7687 33.2324 34.6146ZM24.4927 35.7709C24.2461 35.8789 24.0149 35.9868 23.7683 36.1101C24.0149 36.2181 24.2615 36.4339 24.4773 36.4185C24.8781 36.3877 25.2634 36.2181 25.6642 36.1101C25.5563 36.0331 25.4638 35.9251 25.3405 35.8943C25.0631 35.8326 24.7702 35.8172 24.4927 35.7864V35.7709ZM14.3504 40.3194C14.15 40.1806 13.8263 39.8568 13.6722 39.8877C13.1635 39.9956 13.1635 40.7049 13.6413 40.9516C13.7184 40.9824 13.9342 40.9978 13.9496 40.967C14.0883 40.7974 14.1808 40.6124 14.3504 40.3194ZM61.7328 49.5397C61.5787 49.3701 61.4091 49.2005 61.255 49.0309C61.1009 49.2005 60.7926 49.3701 60.808 49.5242C60.8542 49.8018 61.0854 50.0793 61.255 50.3568C61.4091 50.0793 61.5787 49.8018 61.7328 49.5397ZM37.872 30.6983C37.7487 30.6057 37.6408 30.5287 37.5329 30.467C37.425 30.6212 37.2863 30.7599 37.2401 30.9141C37.2247 30.9758 37.425 31.0529 37.5329 31.13C37.6408 30.9912 37.7641 30.837 37.872 30.6983ZM32.4463 39.3172C32.5542 39.456 32.6775 39.5947 32.7854 39.7489C32.8933 39.6718 33.0937 39.5793 33.0783 39.5331C33.0321 39.3789 32.8933 39.2401 32.7854 39.0859C32.6775 39.163 32.5696 39.2401 32.4463 39.3172ZM78.9348 41.9692C79.0427 42.1079 79.166 42.2467 79.2739 42.4009C79.3818 42.3238 79.5822 42.2313 79.5667 42.185C79.5205 42.0309 79.3818 41.8921 79.2739 41.7379C79.166 41.815 79.0581 41.8921 78.9348 41.9692ZM19.8377 44.6212C19.7144 44.5287 19.6065 44.4516 19.4986 44.3899C19.3907 44.5441 19.252 44.6828 19.2058 44.837C19.1904 44.8987 19.3907 44.9758 19.4986 45.0529C19.6065 44.9141 19.7298 44.7599 19.8377 44.6212ZM3.23693 46.4714L2.89782 46.7027C3.11361 46.7798 3.314 46.8723 3.52979 46.9031C3.60686 46.9031 3.73017 46.7643 3.83807 46.7027C3.63769 46.6256 3.42189 46.5485 3.22151 46.4714H3.23693ZM46.211 47.6124C46.3343 47.5198 46.4422 47.4427 46.5501 47.3811C46.3343 47.304 46.1339 47.2115 45.9181 47.1806C45.8411 47.1806 45.7177 47.3194 45.6098 47.3811C45.8102 47.4582 46.026 47.5353 46.2264 47.6124H46.211ZM78.8115 47.3811C78.7036 47.304 78.5803 47.1652 78.5032 47.1806C78.2874 47.2115 78.0716 47.3194 77.8712 47.3811C77.9791 47.4582 78.1024 47.5969 78.1795 47.5815C78.3953 47.5507 78.6111 47.4427 78.8115 47.3811ZM44.5155 54.1035C44.4076 53.9648 44.2842 53.826 44.1763 53.6718C44.0685 53.7489 43.8681 53.8414 43.8835 53.8877C43.9297 54.0419 44.0685 54.1806 44.1763 54.3348C44.2842 54.2577 44.3921 54.1806 44.5155 54.1035ZM48.7851 55.1057C48.6618 55.1983 48.5539 55.2753 48.446 55.337C48.6618 55.4141 48.8622 55.5066 49.078 55.5375C49.155 55.5375 49.2784 55.3987 49.3863 55.337C49.1859 55.2599 48.9701 55.1828 48.7697 55.1057H48.7851Z" fill="#FFDAC8"/>
<path d="M37.0397 57.4031C37.0397 57.6189 37.1321 57.8656 37.0088 58.0352C36.9009 58.1894 36.531 58.359 36.3152 58.3436C35.9144 58.3128 35.4828 58.1894 35.19 57.989C35.0358 57.8965 35.0513 57.5264 35.19 57.3722C35.4212 57.1101 35.7911 56.8942 36.1456 56.6938C36.3152 56.6013 36.5772 56.5705 36.793 56.5088C36.8855 56.6938 36.9934 56.8788 37.0551 57.0793C37.0859 57.1872 37.0551 57.2951 37.0551 57.4031H37.0397Z" fill="#FFDAC8"/>
<path d="M49.2475 16.1433C49.1396 16.2821 49.0009 16.5596 48.9084 16.5596C48.2456 16.5134 47.6907 16.6213 47.3362 17.0222C47.0896 17.2997 46.8738 17.2997 46.6888 16.9913C46.5809 16.8063 46.5038 16.575 46.5655 16.39C46.6272 16.205 46.8584 15.9429 47.0433 15.9275C47.6445 15.8658 48.261 15.8966 48.8776 15.9275C49.0009 15.9275 49.0934 16.0662 49.2321 16.1433H49.2475Z" fill="#FFDAC8"/>
<path d="M184.983 40.3965C185.291 40.5199 185.846 40.597 185.969 40.7974C186.093 41.0133 185.815 41.3679 185.723 41.6454C185.507 41.5683 185.276 41.5221 185.091 41.4296C184.844 41.3062 184.659 41.1366 184.443 40.9824C184.335 40.9053 184.258 40.8282 184.15 40.7511C184.397 40.6432 184.628 40.5353 184.983 40.3811V40.3965Z" fill="#FFDAC8"/>
<path d="M2.74364 48.8458C2.46619 49.185 1.52594 49.185 1.17142 48.8458C1.10977 48.7995 1.10977 48.6762 1.15601 48.6299C1.41805 48.2907 2.3583 48.2753 2.71282 48.6145C2.77447 48.6608 2.72823 48.7687 2.74364 48.8304V48.8458Z" fill="#FFDAC8"/>
<path d="M162.925 0.555136C162.648 0.585973 162.34 0.678484 162.078 0.647647C161.816 0.61681 161.6 0.447207 161.353 0.339277C161.6 0.231348 161.816 0.0617443 162.078 0.0309073C162.34 7.02981e-05 162.648 0.0617443 162.925 0.123418C163.049 0.154255 163.141 0.262185 163.249 0.339277C163.141 0.41637 163.033 0.493462 162.925 0.570555V0.555136Z" fill="#FFDAC8"/>
<path d="M14.8282 31.8855C14.9361 31.9626 15.1365 32.0705 15.1211 32.1014C15.0132 32.2401 14.8745 32.3943 14.6895 32.4868C14.6125 32.5331 14.3658 32.5331 14.2888 32.4868C14.2117 32.4406 14.2117 32.271 14.2888 32.2093C14.4275 32.0859 14.6433 31.9934 14.8282 31.8855Z" fill="#FFDAC8"/>
<path d="M14.2733 32.4869C14.3042 32.9494 13.9805 33.1653 13.3177 33.1499C13.2869 32.6873 13.6106 32.4714 14.2733 32.4869Z" fill="#FFDAC8"/>
<path d="M13.3331 33.4582C13.1481 33.5662 12.8553 33.782 12.7936 33.7512C12.2233 33.5199 12.6087 33.3349 12.9169 33.1807C13.0094 33.1345 13.1944 33.1807 13.3331 33.1807C13.3331 33.2732 13.3331 33.3812 13.3331 33.4737V33.4582Z" fill="#FFDAC8"/>
<path d="M9.1405 35.2004C9.2484 35.2775 9.44878 35.3855 9.43337 35.4163C9.32547 35.5551 9.18675 35.7092 9.00178 35.8018C8.92471 35.848 8.67808 35.848 8.60102 35.8018C8.52395 35.7555 8.52395 35.5859 8.60102 35.5242C8.73974 35.4009 8.95554 35.3084 9.1405 35.2004Z" fill="#FFDAC8"/>
<path d="M8.58556 36.1103C8.40059 36.2183 8.10773 36.4341 8.04607 36.4033C7.47575 36.172 7.8611 35.987 8.16938 35.8328C8.26187 35.7865 8.49307 35.7865 8.57014 35.8328C8.64721 35.879 8.58556 36.0178 8.58556 36.1103Z" fill="#FFDAC8"/>
<path d="M108.083 11.7027C107.959 11.7952 107.851 11.8723 107.743 11.934C107.636 11.7798 107.497 11.641 107.451 11.4869C107.435 11.4252 107.636 11.3481 107.743 11.271C107.851 11.4098 107.975 11.5639 108.083 11.7027Z" fill="#FFDAC8"/>
<path d="M51.837 17.9626C51.9449 18.0397 52.1453 18.1477 52.1299 18.1785C52.022 18.3173 51.8833 18.4715 51.6983 18.564C51.6212 18.6102 51.3746 18.6102 51.2975 18.564C51.2205 18.5177 51.2205 18.3481 51.2975 18.2864C51.4363 18.1631 51.6521 18.0706 51.837 17.9626Z" fill="#FFDAC8"/>
<path d="M26.6199 24.5308C26.589 24.207 26.6815 23.9141 27.2518 24.0066C27.406 24.0374 27.4676 24.3458 27.5755 24.5308H26.6199Z" fill="#FFDAC8"/>
<path d="M26.6199 25.194C26.1575 25.2248 25.7413 25.1477 25.8646 24.7623C25.8954 24.6544 26.3578 24.6081 26.6199 24.531V25.194Z" fill="#FFDAC8"/>
<path d="M24.1074 26.4273C23.9841 26.3348 23.8762 26.2577 23.7683 26.196C23.9841 26.119 24.1845 26.0264 24.4003 25.9956C24.4774 25.9956 24.6007 26.1344 24.7086 26.196C24.5082 26.2731 24.2924 26.3502 24.092 26.4273H24.1074Z" fill="#FFDAC8"/>
<path d="M22.2115 27.2908C22.4119 27.3679 22.6123 27.445 22.8281 27.522C22.7202 27.5991 22.5969 27.7379 22.5198 27.7225C22.304 27.6917 22.0882 27.5837 21.8878 27.522C21.9957 27.445 22.1036 27.3679 22.2269 27.2908H22.2115Z" fill="#FFDAC8"/>
<path d="M66.0641 45.8083C66.172 45.8854 66.3724 45.9934 66.357 46.0242C66.2491 46.163 66.1103 46.3172 65.9254 46.4097C65.8483 46.4559 65.6017 46.4559 65.5246 46.4097C65.4475 46.3634 65.4475 46.1938 65.5246 46.1321C65.6633 46.0088 65.8791 45.9163 66.0641 45.8083Z" fill="#FFDAC8"/>
</g>
<defs>
<clipPath id="clip0_132_10330">
<rect width="186" height="63" fill="white"/>
</clipPath>
</defs>
</svg>
