<svg width="209" height="26" viewBox="0 0 209 26" fill="none" xmlns="http://www.w3.org/2000/svg">
<g clip-path="url(#clip0_138_1521)">
<path d="M199.43 16.5901C198.72 16.8701 198.08 17.4401 197.24 16.7201C197.01 16.5201 196.45 16.6001 196.05 16.6001C192.58 16.6001 189.12 16.6001 185.65 16.5901C185.1 16.5901 184.45 16.8101 184.03 16.2401C184.03 16.2301 183.81 16.3401 183.68 16.3901C183.46 16.4701 183.1 16.6501 183.04 16.5901C182.44 16.0201 181.67 16.1701 180.95 16.1601C179.94 16.1601 178.92 16.1101 177.91 16.1701C177.21 16.2201 176.83 15.5601 176.08 15.6801C175.43 15.7901 174.73 15.7001 174.06 15.7001C173.39 15.7001 172.7 15.7301 172.03 15.7001C171.48 15.6701 171.14 15.1301 170.46 15.2401C169.81 15.3501 169.11 15.2601 168.44 15.2601H166.66C166.07 15.2601 165.48 15.2601 164.88 15.2601C164.46 15.2601 164.08 15.2601 163.76 14.9301C163.52 14.6801 163.17 14.7701 162.9 15.0101C162.81 15.0901 162.57 15.1801 162.56 15.1701C162.14 14.6001 161.5 14.8201 160.94 14.8101C158.49 14.7901 156.04 14.8101 153.58 14.8001C153.01 14.8001 152.38 14.9501 152 14.3801C151.52 14.3801 150.99 14.1701 150.63 14.6401C150.44 14.8801 150.03 14.8701 149.97 14.7801C149.55 14.2701 148.96 14.3401 148.38 14.3401C143.9 14.3401 139.42 14.3401 134.94 14.3401C134.31 14.3401 133.63 14.2301 133.14 14.7401C132.91 14.5401 132.6 14.1601 132.33 14.3601C131.53 14.9801 130.61 14.7601 129.73 14.7801C128.63 14.8001 127.53 14.7901 126.43 14.7801C125.92 14.7801 125.51 14.8501 125.07 15.1601C124.78 15.3701 124.11 15.4001 123.73 14.9501C123.43 14.6001 123.34 15.0101 123.21 15.1101C123.05 15.2301 122.98 15.2401 122.83 15.0601C122.75 14.9601 122.52 14.8301 122.49 14.8501C122.24 15.0301 122.04 15.2301 121.65 15.2501C120.52 15.3001 119.32 14.9601 118.31 15.6901H116.03C114.85 15.6901 113.64 15.8101 112.49 15.6501C111.5 15.5201 110.87 16.3201 109.9 16.1601C109.08 16.0301 108.21 16.1301 107.37 16.1301C106.47 16.9901 105.29 16.6001 104.29 16.5201C103.44 16.4601 102.98 17.0901 102.21 17.0401C101.54 16.9901 100.86 17.0401 100.19 17.0401C99.55 17.7701 98.64 17.3901 97.85 17.4501C97.42 17.4801 97.07 17.5201 96.74 17.8101C96.51 18.0101 96.25 17.2001 95.85 17.7201C95.77 17.8201 95.59 17.8801 95.44 17.9101C94.66 18.0401 93.73 17.5801 93.11 18.3601C92.93 18.2201 92.75 18.0801 92.57 17.9401C92.03 18.8301 90.74 17.9301 90.13 18.7201C90.04 18.8401 89.67 18.7901 89.43 18.8101C88.8 18.8801 88.06 18.5701 87.59 19.2101C87.09 19.2301 86.59 19.2101 86.09 19.2701C85.06 19.4101 83.9 18.8301 82.99 19.6801C82.09 19.8101 81.06 19.4201 80.3 19.8701C79.4 20.4101 78.5 19.9801 77.63 20.1601C77.31 20.2201 77.18 19.9901 77.02 19.8401C76.87 19.7001 76.81 19.7401 76.64 19.8801C76.48 20.0201 76.21 20.1701 76.02 20.1401C75.56 20.0701 75.28 19.6501 74.7 19.6801C74.27 19.7001 73.81 19.2701 73.39 19.3001C72.8 19.3401 72.5 18.9701 72.09 18.8001C71.2 18.4301 70.1 18.2701 69.83 17.1301C69.73 16.6901 68.87 16.5201 68.97 15.8801C68.46 15.6101 68.6 15.1201 68.44 14.7301C68.25 14.2801 67.78 13.9001 67.34 13.5801C67.13 13.4201 66.72 13.4301 66.4 13.4401C65.6 13.4601 64.73 13.2401 64.06 13.8701C63.98 13.9401 63.73 13.8701 63.57 13.8801C62.84 13.9601 62.01 13.6201 61.4 14.1101C60.79 14.5901 59.95 14.0001 59.54 14.4401C58.99 15.0201 57.98 14.4601 57.59 15.2101C57.13 15.3101 56.58 15.0501 56.21 15.5201C55.97 15.8201 55.43 15.6101 55.14 15.9801C55.01 16.1401 54.53 16.1501 54.22 16.1101C53.66 16.0501 53.33 16.3901 52.89 16.5401C52.45 16.6901 51.89 16.5401 51.42 16.6501C51.15 16.7201 50.92 16.9401 50.59 17.0401C50.01 17.2301 49.53 17.6901 48.95 17.8601C48.43 18.0101 47.77 17.8101 47.4 18.3601C46.68 18.1401 46.16 18.8001 45.58 18.7601C44.84 18.7201 44.46 19.4101 43.76 19.2601C43.61 19.2301 43.39 19.2401 43.29 19.3201C42.76 19.7801 42.06 19.9401 41.39 20.1501C40.98 20.8701 40.04 20.4201 39.43 20.8701C38.92 21.2401 38.17 21.4101 37.55 21.7001C37.34 21.8001 37.11 21.9601 36.91 21.9401C36.31 21.8601 35.99 22.1801 35.63 22.4901C35.46 22.6401 35.2 22.8601 35.05 22.8301C34.39 22.6901 34.02 23.2101 33.48 23.2901C32.93 23.3801 32.58 23.9601 31.91 23.7601C31.8 23.7301 31.57 23.8301 31.5 23.9201C30.96 24.6401 30.15 24.8101 29.3 24.6201C28.53 24.4501 28.24 25.2701 27.47 25.1201C26.83 24.9901 26.08 24.9701 25.46 25.1201C24.66 25.3201 24.28 24.7001 23.64 24.6001C23.1 24.5101 22.79 23.9801 22.7 23.4401C22.68 23.3201 22.35 23.1901 22.38 23.1301C22.56 22.6401 21.34 22.2201 22.3 21.7201C21.3 21.2101 22.62 20.8101 22.4 20.3101C22.35 20.2101 22.81 19.9601 22.79 19.8101C22.64 18.9101 23.03 18.2701 23.78 17.6701C24.07 17.4401 23.67 16.8401 24.15 16.4601C24.49 16.2001 24.39 15.6201 24.89 15.3901C25.39 15.1601 25.23 14.5901 25.61 14.3101C26.44 13.7001 26.64 12.6501 27.57 12.1001C28.06 11.8101 27.92 11.1701 28.46 10.8401C28.99 10.5201 29.32 10.0301 29.59 9.47007C29.81 9.02007 30.46 8.76007 30.78 8.33007C31.04 7.99007 31.13 7.57007 31.5 7.24007C31.88 6.90007 32.09 6.41007 32.42 6.02007C32.73 5.67007 33.26 5.43007 33.43 5.04007C33.7 4.45007 33.94 3.87007 34.37 3.36007C34.41 3.31007 34.29 3.15007 34.21 3.06007C34.18 3.02007 34.04 3.03007 33.97 3.06007C33.61 3.20007 33.27 3.39007 32.91 3.50007C32.61 3.59007 32.24 3.40007 31.98 3.70007C31.88 3.81007 31.69 3.97007 31.6 3.95007C30.55 3.64007 29.71 4.32007 28.77 4.47007C27.89 4.61007 27.08 5.18007 26.28 5.62007C25.73 5.93007 24.87 5.47007 24.52 6.21007C23.89 6.05007 23.63 6.72007 22.95 6.72007C22.31 6.72007 21.56 7.01007 21.07 7.52007C20.53 8.08007 19.57 8.12007 19.13 8.79007C18.42 8.87007 17.78 9.17007 17.11 9.33007C16.61 9.45007 16.08 9.33007 16.19 10.0301C16.19 10.0901 15.95 10.2001 15.81 10.2501C14.87 10.6001 13.93 10.9601 13.09 11.4701C12.63 11.7501 12.07 11.3501 11.7 11.7701C11.84 12.5101 11.02 12.4001 10.66 12.7001C10.23 13.0601 9.75996 13.4001 9.41996 13.8201C8.95996 14.3801 8.06996 14.3001 7.61996 14.9101C7.20996 15.4601 6.65996 16.0301 6.00996 16.3201C5.15996 16.6901 4.60996 17.3101 3.88996 17.7601C3.39996 18.0701 2.57996 17.7801 2.13996 18.3401C1.46996 18.3201 0.809964 18.3001 0.149964 18.2601C0.0899642 18.2601 -0.0100358 18.1501 -3.5818e-05 18.1101C-3.5818e-05 18.0501 0.0999642 17.9701 0.169964 17.9601C0.409964 17.9201 0.659964 17.9001 0.899964 17.9001C1.28996 17.9001 1.52996 17.7901 1.50996 17.4001C1.49996 17.1801 1.42996 16.8701 1.55996 16.7601C2.49996 15.9601 3.26996 14.9901 4.54996 14.5001C5.11996 14.2801 4.98996 14.5501 5.06996 14.8101C5.15996 15.1001 5.58996 15.3301 5.76996 15.2001C6.02996 15.0201 6.37996 14.8301 6.45996 14.5901C6.50996 14.4401 6.12996 14.1701 5.93996 13.9701C5.82996 13.8601 5.69996 13.7601 5.52996 13.6001C5.95996 13.2501 6.38996 12.8901 6.80996 12.5401C7.51996 11.9401 8.09996 11.2101 9.10996 10.9501C9.52996 10.2501 10.6 10.3201 11.05 9.68007C11.51 9.01007 12.5 9.01007 13 8.41007C13.28 8.08007 13.64 7.99007 14.09 8.01007C14.3 8.01007 14.61 7.92007 14.72 7.77007C15.2 7.12007 16.18 7.12007 16.69 6.52007C16.82 6.37007 17.09 6.29007 17.31 6.23007C18.67 5.87007 20.93 4.99007 21.7 4.26007C22.2 3.79007 22.84 4.20007 23.29 3.81007C23.69 3.46007 23.98 2.93007 24.72 3.07007C24.87 3.10007 25.13 3.08007 25.18 3.00007C25.46 2.56007 26.11 2.74007 26.42 2.37007C26.78 1.94007 27.47 2.42007 27.78 2.04007C28.11 1.63007 28.75 1.85007 29.04 1.42007C29.1 1.33007 29.32 1.29007 29.47 1.27007C30.02 1.19007 30.61 1.43007 31.11 0.950072C31.49 0.580072 32.22 1.03007 32.68 0.480072C32.98 0.120072 33.86 0.600072 34.2 -0.0199284C34.6 -0.0199284 35.11 -0.129928 35.37 0.0400716C35.74 0.280072 36.07 0.370072 36.5 0.370072C37.19 0.370072 37.38 0.990072 37.85 1.28007C38.19 1.49007 38.1 1.81007 38.08 2.09007C38.04 2.65007 38.34 3.30007 37.61 3.71007C37.77 3.87007 37.93 4.03007 38.09 4.19007C37.75 4.43007 37.7 4.80007 37.51 5.10007C37.15 5.66007 36.32 6.04007 36.13 6.61007C35.91 7.28007 34.84 7.43007 35.04 8.24007C34.62 8.61007 34.19 8.97007 33.79 9.35007C33.41 9.71007 33.45 10.3301 32.89 10.5901C32.38 10.8201 32.64 11.4101 32.18 11.6901C31.77 11.9501 31.49 12.3501 31.09 12.6201C30.4 13.0701 30.34 13.8701 29.7 14.3801C29.22 14.7601 29.13 15.5101 28.75 16.0301C28.39 16.5201 27.78 16.8601 27.46 17.3601C26.96 18.1401 26.62 19.0101 26.06 19.7601C25.79 20.1201 26.06 20.5001 25.88 20.8201C25.75 21.0701 25.32 21.1801 25.41 21.5401C25.44 21.6701 25.55 21.8901 25.63 21.8901C26.64 21.9201 27.65 21.9201 28.66 21.9201C28.72 21.9201 28.78 21.8301 28.85 21.7901C29.36 21.4501 29.98 21.0901 30.52 21.0801C31.25 21.0601 31.67 20.6001 32.3 20.4801C32.81 20.3901 33.21 19.8801 33.72 19.7501C34.34 19.6001 34.92 19.3301 35.41 19.0401C35.82 18.8001 36.32 18.8201 36.7 18.4801C37.06 18.1601 37.67 17.9301 38.18 17.9201C38.74 17.9001 39.07 17.6301 39.49 17.4301C40.11 17.1401 40.87 17.0601 41.36 16.5501C42.1 16.5901 42.59 15.7901 43.43 16.0701C43.61 16.1301 43.97 16.0401 44.09 15.9101C44.42 15.5301 45 15.6801 45.37 15.3101C45.58 15.1101 46.27 15.3101 46.5 15.1001C46.93 14.7201 47.39 14.7901 47.87 14.7301C48.25 14.6801 48.42 14.1901 48.93 14.2901C49.26 14.3501 49.6 14.3101 49.81 14.0201C49.95 13.8301 50.03 13.8201 50.18 13.9901C50.59 14.4601 50.98 14.3901 51.41 13.9701C51.68 13.7101 51.9 13.4201 52.4 13.3701C52.84 13.3201 53.14 12.8101 53.72 12.9401C54.26 13.0701 54.45 12.3401 55.03 12.4901C55.5 12.6101 55.76 12.2501 56.11 12.0801C56.51 11.8901 57.06 12.1901 57.49 11.7501C57.85 11.3801 58.44 11.6501 58.93 11.6001C59.42 11.5501 59.64 11.0201 60.25 11.1201C60.71 11.2001 61.17 11.1701 61.64 10.8201C61.94 10.5901 62.59 10.7201 63.08 10.6901C63.64 10.6501 64.23 10.8401 64.7 10.3201C64.87 10.1301 65.01 10.7901 65.39 10.5701C65.59 10.4601 65.78 10.2901 66 10.2601C66.51 10.1901 66.7 10.8401 67.31 10.7201C67.79 10.6201 68.31 10.7001 68.8 10.7001C69.42 11.2501 70.02 11.7701 70.61 12.3101C70.95 12.6301 71.27 12.9701 71.59 13.3001C71.37 14.0601 72.37 14.5801 72.11 15.3601C72.04 15.5701 72.11 15.8101 72.1 16.0301C72.06 16.4901 72.49 16.6701 72.78 16.9001C73.06 17.1201 73.39 17.0301 73.63 16.7601C73.95 16.4001 74.4 16.5901 74.8 16.5401C75.45 17.1901 76.32 16.9701 77.13 16.9801C78.48 17.0001 79.84 16.9901 81.19 16.9801C81.76 16.9801 82.08 16.3601 82.76 16.5101C83.24 16.6201 83.77 16.5801 84.27 16.5101C84.97 16.4301 85.32 16.6501 85.42 17.2801C85.45 17.4601 85.75 17.6001 85.94 17.7601C85.98 17.8001 86.07 17.8301 86.11 17.8201C86.18 17.7901 86.29 17.7201 86.28 17.6701C86.27 17.2501 86.52 16.7701 85.97 16.4601C85.76 16.3401 85.75 16.1901 86 16.1501C86.4 16.0901 86.88 16.2001 87.23 16.0601C88.07 15.7201 88.92 15.6501 89.82 15.6001C90.42 15.5701 90.91 15.0401 91.65 15.1601C92.22 15.2601 92.83 15.2101 93.42 15.1701C93.97 15.1301 94.31 14.5901 94.99 14.7101C95.55 14.8101 96.16 14.7101 96.75 14.7101C97.39 13.9801 98.3 14.3601 99.09 14.2901C99.89 14.2301 100.72 14.4301 101.44 13.8501C101.63 13.7001 102.1 13.8501 102.43 13.8201C103.06 13.7701 103.79 14.0601 104.29 13.4401C104.36 13.3601 104.6 13.3901 104.76 13.3801C106.05 13.2501 107.4 13.7001 108.62 12.9501C108.85 12.8101 109.28 12.9301 109.62 12.9301C110.55 12.9301 111.48 12.9201 112.41 12.9301C112.76 12.9301 113.04 12.8901 113.3 12.6501C113.71 12.2801 113.84 13.0201 113.99 12.8901C114.77 12.1601 115.73 12.5301 116.6 12.5001C118.03 12.4501 119.47 12.4801 120.91 12.5001C121.35 12.5001 121.69 12.4401 122.02 12.1401C122.27 11.9101 122.62 12.0301 122.88 12.2701C122.96 12.3401 123.2 12.4001 123.22 12.3801C123.5 12.0201 123.91 12.0301 124.34 12.0401C125.44 12.0501 126.55 12.1201 127.64 12.0201C128.67 11.9301 129.84 12.4901 130.73 11.6001C130.91 11.7401 131.09 11.8801 131.27 12.0201C132.09 11.1801 133.16 11.7001 134.12 11.6101C135.12 11.5201 136.15 11.5701 137.16 11.6101C137.36 11.6101 137.54 11.8601 137.75 11.9501C137.89 12.0101 138.12 12.0801 138.21 12.0301C139.58 11.1901 141.12 11.7001 142.58 11.6101C144.01 11.5201 145.45 11.5901 146.89 11.5901C147.2 11.5901 147.27 12.1901 147.62 11.9001C148.09 11.5101 148.42 11.4701 148.88 11.9001C149.01 12.0301 149.33 12.0401 149.56 12.0401C151.34 12.0501 153.11 12.0501 154.89 12.0401C155.31 12.0401 155.73 12.0001 156.01 12.3801C156.03 12.4101 156.28 12.3601 156.35 12.2801C156.67 11.9201 157.28 11.9201 157.48 12.0701C158.21 12.6201 159.03 12.4801 159.84 12.4901C161.02 12.4901 162.21 12.4501 163.39 12.5101C164.18 12.5401 165.06 12.2201 165.75 12.9001C165.87 13.0201 166.23 12.9401 166.48 12.9401C167.66 12.9401 168.85 12.9301 170.03 12.9401C170.67 12.9401 171.4 12.7501 171.85 13.3801C172.53 13.3801 173.2 13.3801 173.88 13.3801C174.56 13.3801 175.24 13.3501 175.91 13.4001C176.1 13.4101 176.27 13.6701 176.45 13.8101C176.84 13.1601 177.18 13.7401 177.57 13.8101C178.06 13.9001 178.58 13.8301 179.09 13.8301C179.6 13.8301 180.1 13.8301 180.61 13.8301C181.11 13.8301 181.58 13.7901 181.97 14.2101C182.14 14.3901 182.3 13.6901 182.65 13.9801C182.92 14.2001 183.16 14.3101 183.53 14.3001C184.2 14.2701 184.88 14.3001 185.56 14.2901C186.15 14.2701 186.71 14.2601 187.15 14.7301C187.21 14.7901 187.58 14.6401 187.8 14.5601C187.93 14.5101 188.14 14.3501 188.15 14.3601C188.74 15.0101 189.55 14.6901 190.26 14.7401C191.02 14.7901 191.78 14.7101 192.54 14.7601C193.25 14.8101 194.03 14.5201 194.66 15.1201C194.82 15.2801 195.29 15.1901 195.62 15.1901C197.23 15.1901 198.83 15.1601 200.44 15.2101C201.23 15.2301 202.1 14.9301 202.81 15.5901C202.97 15.7401 203.45 15.6401 203.79 15.6401C204.89 15.6401 205.99 15.6301 207.09 15.6401C207.66 15.6401 207.94 16.0501 208.13 16.4401C208.19 16.5701 207.98 16.9401 207.86 16.9501C207.36 17.0001 206.8 17.0801 206.37 16.9201C206.01 16.7901 205.8 16.4201 205.46 16.9001C205.12 16.7801 204.77 16.5401 204.44 16.5601C204.08 16.5801 203.89 17.0801 203.38 16.9901C203.05 16.9301 202.54 17.1101 202.4 16.9601C201.71 16.2701 200.83 16.6201 200.04 16.5301C199.98 16.4101 199.95 16.1901 199.87 16.1701C199.57 16.1101 199.52 16.3101 199.53 16.5301L199.43 16.5901ZM61.72 12.4801C61.79 12.4201 61.84 12.3701 61.9 12.3201C61.79 12.2701 61.68 12.2001 61.56 12.1801C61.52 12.1801 61.45 12.2701 61.39 12.3201C61.5 12.3701 61.61 12.4301 61.72 12.4801ZM77.38 17.9401C77.32 17.9901 77.21 18.0501 77.22 18.0901C77.25 18.2001 77.32 18.2901 77.38 18.3901C77.44 18.3401 77.55 18.2801 77.54 18.2401C77.51 18.1301 77.44 18.0401 77.38 17.9401ZM32.54 22.2701C32.61 22.3301 32.66 22.3801 32.72 22.4301C32.78 22.3301 32.85 22.2301 32.88 22.1301C32.88 22.0901 32.78 22.0301 32.72 21.9801C32.66 22.0801 32.6 22.1801 32.54 22.2701Z" fill="#F9AF8A"/>
<path d="M199.94 16.5901C199.96 16.8101 199.91 17.0101 199.6 16.9501C199.52 16.9301 199.48 16.7201 199.43 16.5901H199.94Z" fill="#F9AF8A"/>
</g>
<defs>
<clipPath id="clip0_138_1521">
<rect width="208.04" height="25.2" fill="white"/>
</clipPath>
</defs>
</svg>
