<svg width="66" height="55" viewBox="0 0 66 55" fill="none" xmlns="http://www.w3.org/2000/svg">
<g clip-path="url(#clip0_138_1526)">
<path d="M26.1726 54.9953H18.1801V46.954C22.5934 46.954 26.1726 50.555 26.1726 54.9953ZM9.09238 46.954V54.9953H17.0849C17.0849 50.555 13.5057 46.954 9.09238 46.954ZM2.16872e-05 46.954V54.9953H7.99254C7.99254 50.555 4.41338 46.954 2.16872e-05 46.954ZM52.1308 38.4109C53.7759 43.6436 54.666 49.2187 54.666 55H27.3284C27.3284 49.7204 25.8464 44.7924 23.2878 40.6053C21.9037 41.7728 20.1235 42.4714 18.1754 42.4714V34.4676C17.8492 34.1769 17.5183 33.8956 17.1828 33.6189C15.6262 36.3666 12.6948 38.2234 9.3254 38.2234V29.1411C8.8547 28.9676 8.37935 28.8129 7.89467 28.6675C7.33077 32.5546 4.01259 35.5367 -0.00463867 35.5367V0H2.16872e-05C17.7094 0 33.4381 8.47741 43.4299 21.6108C52.2566 18.9945 61.9129 23.1394 66 31.7621L52.1308 38.4062V38.4109ZM4.72097 3.67136C4.72097 3.07587 4.24095 2.59292 3.64908 2.59292C3.05722 2.59292 2.5772 3.07587 2.5772 3.67136C2.5772 4.26684 3.05722 4.74979 3.64908 4.74979C4.24095 4.74979 4.72097 4.26684 4.72097 3.67136ZM37.3435 27.5C37.3435 25.2775 35.5492 23.4723 33.3402 23.4723C31.1312 23.4723 29.337 25.2775 29.337 27.5C29.337 29.7225 31.1312 31.5277 33.3402 31.5277C35.5492 31.5277 37.3435 29.7225 37.3435 27.5ZM39.5059 53.5277L47.9318 37.1824L46.6828 36.5307L38.2569 52.876L39.5059 53.5277ZM43.7794 53.5277L49.3719 42.6731L48.1229 42.0213L42.5305 52.876L43.7794 53.5277ZM50.975 46.8086L49.7261 46.1569L46.2634 52.876L47.5124 53.5277L50.975 46.8086Z" fill="#0B2442"/>
</g>
<defs>
<clipPath id="clip0_138_1526">
<rect width="66" height="55" fill="white"/>
</clipPath>
</defs>
</svg>
