<svg width="294" height="98" viewBox="0 0 294 98" fill="none" xmlns="http://www.w3.org/2000/svg">
<path d="M80.8241 37.7519L74.2481 7.27194C74.0881 6.72794 74.1521 6.27994 74.4401 5.92794C74.7281 5.57594 75.1601 5.39994 75.7361 5.39994H78.9521C79.3361 5.39994 79.6721 5.52794 79.9601 5.78394C80.2481 6.00794 80.4241 6.31194 80.4881 6.69594L83.1761 20.8079C83.5601 22.9199 84.0241 23.9759 84.5681 23.9759C85.1441 23.9759 85.6881 22.9519 86.2001 20.9039L89.8481 6.59994C90.0721 5.79994 90.5681 5.39994 91.3361 5.39994H94.5041C95.2721 5.39994 95.7681 5.79994 95.9921 6.59994L99.6401 20.9039C100.152 22.9519 100.68 23.9759 101.224 23.9759C101.8 23.9759 102.28 22.9199 102.664 20.8079L105.352 6.69594C105.416 6.31194 105.592 6.00794 105.88 5.78394C106.168 5.52794 106.504 5.39994 106.888 5.39994H110.152C110.728 5.39994 111.16 5.57594 111.448 5.92794C111.736 6.27994 111.8 6.72794 111.64 7.27194L105.064 37.7519C104.968 38.1359 104.776 38.4399 104.488 38.6639C104.2 38.8879 103.88 38.9999 103.528 38.9999H100.264C99.9121 38.9999 99.5921 38.9039 99.3041 38.7119C99.0161 38.4879 98.8401 38.1999 98.7761 37.8479L94.4561 20.9519C94.0081 19.1599 93.4961 18.2639 92.9201 18.2639C92.3761 18.2639 91.8641 19.1599 91.3841 20.9519L87.0641 37.8479C87.0001 38.1999 86.8241 38.4879 86.5361 38.7119C86.2481 38.9039 85.9281 38.9999 85.5761 38.9999H82.3601C81.5601 38.9999 81.0481 38.5839 80.8241 37.7519Z" fill="#0B2442"/>
<path d="M115.675 37.4159V6.45594C115.675 5.97594 115.819 5.59194 116.107 5.30394C116.395 5.01594 116.779 4.87194 117.259 4.87194H120.139C120.619 4.87194 121.003 5.01594 121.291 5.30394C121.579 5.59194 121.723 5.97594 121.723 6.45594V16.8719C121.723 17.4159 121.803 17.6879 121.963 17.6879C122.123 17.6879 122.347 17.5439 122.635 17.2559C123.755 15.9439 125.355 15.2879 127.435 15.2879C130.123 15.2879 132.187 16.1519 133.627 17.8799C134.939 19.4799 135.595 21.6559 135.595 24.4079V37.4159C135.595 37.8959 135.451 38.2799 135.163 38.5679C134.875 38.8559 134.491 38.9999 134.011 38.9999H131.131C130.651 38.9999 130.267 38.8559 129.979 38.5679C129.691 38.2799 129.547 37.8959 129.547 37.4159V25.8959C129.547 23.5919 128.923 22.0399 127.675 21.2399C127.227 20.9199 126.619 20.7599 125.851 20.7599C125.083 20.7599 124.427 20.9199 123.883 21.2399C123.371 21.5599 122.955 21.9759 122.635 22.4879C122.027 23.4479 121.723 24.6959 121.723 26.2319V37.4159C121.723 37.8959 121.579 38.2799 121.291 38.5679C121.003 38.8559 120.619 38.9999 120.139 38.9999H117.259C116.779 38.9999 116.395 38.8559 116.107 38.5679C115.819 38.2799 115.675 37.8959 115.675 37.4159Z" fill="#0B2442"/>
<path d="M149.142 39.2879C146.678 39.4159 144.582 38.8719 142.854 37.6559C141.158 36.4399 140.31 34.6799 140.31 32.3759C140.31 29.9439 141.414 27.9919 143.622 26.5199C145.606 25.1759 147.862 24.4719 150.39 24.4079C151.446 24.3119 152.534 24.4879 153.654 24.9359C154.134 25.1599 154.374 25.0159 154.374 24.5039V23.7359C154.374 22.3919 154.086 21.5279 153.51 21.1439C152.934 20.7279 152.102 20.5199 151.014 20.5199C148.838 20.5199 146.662 21.0959 144.486 22.2479C144.166 22.4399 143.782 22.5359 143.334 22.5359C142.918 22.5359 142.534 22.2479 142.182 21.6719L141.078 19.7999C140.822 19.4159 140.742 19.0319 140.838 18.6479C140.966 18.2639 141.238 17.9599 141.654 17.7359C144.726 16.1039 147.814 15.2879 150.918 15.2879C154.054 15.2879 156.374 15.9119 157.878 17.1599C159.382 18.4079 160.134 20.5999 160.134 23.7359V33.8159C160.134 34.4879 160.262 34.8719 160.518 34.9679C160.806 35.0319 161.174 35.0159 161.622 34.9199C162.294 34.7599 162.63 35.0159 162.63 35.6879V37.3199C162.63 38.2159 161.99 38.7599 160.71 38.9519C160.006 39.1759 159.142 39.2879 158.118 39.2879C157.126 39.2879 156.31 39.0959 155.67 38.7119C155.158 38.3279 154.646 38.1359 154.134 38.1359C153.622 38.1359 153.19 38.2159 152.838 38.3759C151.782 38.8879 150.55 39.1919 149.142 39.2879ZM146.118 32.4239C146.278 33.6719 147.43 34.2319 149.574 34.1039C150.918 34.0079 152.086 33.6719 153.078 33.0959C154.07 32.5839 154.534 31.8959 154.47 31.0319C154.406 30.1359 154.054 29.5759 153.414 29.3519C152.774 29.1279 151.83 29.0479 150.582 29.1119C149.334 29.1439 148.262 29.5119 147.366 30.2159C146.502 30.9519 146.086 31.6879 146.118 32.4239Z" fill="#0B2442"/>
<path d="M177.745 39.3359C176.849 39.4639 175.857 39.5279 174.769 39.5279C173.681 39.5279 172.689 39.4319 171.793 39.2399C170.897 39.0479 170.145 38.7119 169.537 38.2319C168.353 37.3039 167.761 35.6239 167.761 33.1919V22.6319C167.761 22.1519 167.617 21.7679 167.329 21.4799C167.041 21.1919 166.657 21.0479 166.177 21.0479H165.025C164.545 21.0479 164.161 20.9039 163.873 20.6159C163.585 20.3279 163.441 19.9439 163.441 19.4639V17.4479C163.441 16.9679 163.585 16.5839 163.873 16.2959C164.161 16.0079 164.545 15.8639 165.025 15.8639H166.177C166.657 15.8639 167.041 15.7199 167.329 15.4319C167.617 15.1439 167.761 14.7599 167.761 14.2799V9.43194C167.761 8.95194 167.905 8.56794 168.193 8.27994C168.481 7.99194 168.865 7.84794 169.345 7.84794H172.177C172.657 7.84794 173.041 7.99194 173.329 8.27994C173.617 8.56794 173.761 8.95194 173.761 9.43194V14.2799C173.761 14.7599 173.905 15.1439 174.193 15.4319C174.481 15.7199 174.865 15.8639 175.345 15.8639H178.417C178.897 15.8639 179.281 16.0079 179.569 16.2959C179.857 16.5839 180.001 16.9679 180.001 17.4479V19.4639C180.001 19.9439 179.857 20.3279 179.569 20.6159C179.281 20.9039 178.897 21.0479 178.417 21.0479H175.345C174.865 21.0479 174.481 21.1919 174.193 21.4799C173.905 21.7679 173.761 22.1519 173.761 22.6319V31.6079C173.761 32.5999 174.001 33.2719 174.481 33.6239C174.993 33.9759 175.649 34.1519 176.449 34.1519C177.281 34.1519 177.873 34.0879 178.225 33.9599C178.609 33.8319 178.993 33.6879 179.377 33.5279C179.793 33.3359 180.001 33.5119 180.001 34.0559V37.6559C180.001 37.9759 179.905 38.2799 179.713 38.5679C179.553 38.8239 179.329 38.9839 179.041 39.0479L177.745 39.3359Z" fill="#0B2442"/>
<path d="M184.788 15.4319L184.164 2.51994C184.132 2.03994 184.26 1.65594 184.548 1.36794C184.836 1.04794 185.22 0.887939 185.7 0.887939H189.108C189.588 0.887939 189.972 1.04794 190.26 1.36794C190.548 1.65594 190.676 2.03994 190.644 2.51994L190.02 15.4319C190.02 15.8799 189.876 16.2479 189.588 16.5359C189.3 16.7919 188.932 16.9199 188.484 16.9199H186.324C185.876 16.9199 185.508 16.7919 185.22 16.5359C184.932 16.2479 184.788 15.8799 184.788 15.4319Z" fill="#0B2442"/>
<path d="M202.009 22.1999C202.009 22.6799 202.169 23.0319 202.489 23.2559C203.129 23.6719 204.217 24.0719 205.753 24.4559C207.321 24.8399 208.585 25.2239 209.545 25.6079C210.505 25.9599 211.369 26.4239 212.137 26.9999C213.769 28.3119 214.585 30.0879 214.585 32.3279C214.585 34.8559 213.545 36.7279 211.465 37.9439C209.737 38.9679 207.705 39.4799 205.369 39.4799C201.497 39.4799 198.329 38.4719 195.865 36.4559C195.513 36.1679 195.337 35.8319 195.337 35.4479C195.337 35.0639 195.481 34.7119 195.769 34.3919L197.353 32.6159C197.737 32.2319 198.137 32.0399 198.553 32.0399C198.969 32.0399 199.369 32.1839 199.753 32.4719C201.257 33.6559 203.049 34.2479 205.129 34.2479C206.377 34.2479 207.225 34.1039 207.673 33.8159C208.153 33.4959 208.393 33.0319 208.393 32.4239C208.393 31.8159 208.265 31.3839 208.009 31.1279C207.785 30.8399 207.385 30.6159 206.809 30.4559C206.265 30.2639 205.705 30.1199 205.129 30.0239C204.553 29.8959 203.817 29.7519 202.921 29.5919C202.025 29.3999 201.129 29.1439 200.233 28.8239C199.369 28.4719 198.601 28.0239 197.929 27.4799C196.553 26.2639 195.865 24.5679 195.865 22.3919C195.865 20.1199 196.793 18.3279 198.649 17.0159C200.281 15.8319 202.457 15.2399 205.177 15.2399C207.929 15.2399 210.329 15.9599 212.377 17.3999C212.729 17.6559 212.921 17.9759 212.953 18.3599C212.985 18.7439 212.873 19.1119 212.617 19.4639L211.081 21.4319C210.793 21.8479 210.457 22.0559 210.073 22.0559C209.721 22.0559 209.289 21.8799 208.777 21.5279C207.721 20.8559 206.329 20.5199 204.601 20.5199C202.873 20.5199 202.009 21.0799 202.009 22.1999Z" fill="#0B2442"/>
<path d="M267.208 79.6303C266.363 79.2453 266.082 78.5895 266.364 77.6629L269.461 68.788C269.602 68.3247 269.848 68.0151 270.201 67.8593C270.596 67.6876 271.119 67.6975 271.77 67.8889C272.45 68.0936 273.23 68.2733 274.109 68.4279C274.988 68.5826 275.826 68.5954 276.624 68.4666C278.406 68.2595 279.663 67.3552 280.393 65.7538C281.123 64.1524 281.309 62.7424 280.95 61.5237C280.62 60.3184 279.771 59.4037 278.403 58.7797C277.063 58.169 275.869 58.0114 274.82 58.3068C273.8 58.6155 272.972 59.0819 272.336 59.7062C271.742 60.3146 271.238 60.6477 270.825 60.7055C270.441 60.7766 270.058 60.69 269.677 60.4459L265.521 57.7596C265.14 57.5156 264.907 57.216 264.823 56.861C264.752 56.477 264.838 56.0944 265.083 55.7133C266.923 53.1413 269.38 51.571 272.453 51.0026C275.34 50.4551 278.254 50.8518 281.195 52.1926C284.806 53.8388 287.266 56.1563 288.576 59.1452C289.889 62.2055 289.748 65.4827 288.155 68.9766C286.522 72.5579 283.629 74.5448 279.476 74.9372C278.25 75.0814 276.989 75.0693 275.695 74.901C274.934 74.871 274.386 75.1484 274.049 75.7333L271.648 80.0725C271.192 80.9194 270.527 81.1437 269.653 80.7454L267.208 79.6303ZM269.505 89.171C268.947 90.3939 268.075 91.2271 266.888 91.6706C265.701 92.1141 264.496 92.0571 263.273 91.4995C262.079 90.9552 261.253 90.0684 260.793 88.839C260.35 87.652 260.4 86.4617 260.944 85.2679C261.502 84.045 262.368 83.2264 263.541 82.812C264.757 82.3817 265.962 82.4387 267.156 82.983C268.379 83.5406 269.212 84.4129 269.656 85.5999C270.113 86.7577 270.062 87.9481 269.505 89.171Z" fill="#0B2442"/>
<g clip-path="url(#clip0_218_1523)">
<path d="M32.08 57.7899C33.14 59.3599 33.67 61.6999 33.67 64.8099V85.3899H25.59V65.2799C25.59 64.4199 25.42 63.7799 25.09 63.3599C24.76 62.9499 24.18 62.7399 23.35 62.7399C22.33 62.7399 21.5 63.1699 20.87 64.0399V85.3899H12.8V65.2799C12.8 64.4199 12.63 63.7799 12.3 63.3599C11.97 62.9499 11.39 62.7399 10.56 62.7399C9.54 62.7399 8.71 63.1099 8.08 63.8599V85.3899H0V55.9099H4.95L7.31 60.5699H7.55C8.02 58.8399 8.83 57.5499 9.97 56.7099C11.11 55.8699 12.47 55.4399 14.04 55.4399C15.81 55.4399 17.22 55.8499 18.29 56.6799C19.35 57.5099 20.08 58.7999 20.47 60.5699H20.71C21.1 58.8399 21.84 57.5499 22.92 56.7099C24 55.8699 25.33 55.4399 26.9 55.4399C29.3 55.4399 31.03 56.2299 32.09 57.7999L32.08 57.7899Z" fill="#0B2442"/>
<path d="M67.9999 69.6499C67.9999 64.8899 66.6799 61.3299 64.0499 58.9799C61.4199 56.6199 57.7199 55.4399 52.9599 55.4399C47.9699 55.4399 43.9599 56.7399 40.9299 59.3299C37.8999 61.9299 36.3899 65.6999 36.3899 70.6499C36.3899 75.5999 37.8399 79.0799 40.7499 81.7999C43.6599 84.5099 48.1599 85.8699 54.2499 85.8699C58.7299 85.8699 62.6999 85.3399 66.1599 84.2799V76.7899C62.4599 77.7299 58.5699 78.2099 54.4799 78.2099C51.8099 78.2099 49.7499 77.8699 48.3199 77.1799C46.8799 76.4899 45.9299 75.3599 45.4599 73.7899H67.9899V69.6599L67.9999 69.6499ZM45.3499 67.7599C45.7799 66.1099 46.6299 64.9199 47.8899 64.1899C49.1499 63.4599 50.8399 63.0999 52.9599 63.0999C55.0799 63.0999 56.7399 63.4699 57.8199 64.2199C58.8999 64.9699 59.4399 66.1499 59.4399 67.7599H45.3399H45.3499Z" fill="#0B2442"/>
<path d="M103.2 63.46V83.22C99.5799 84.99 95.3399 85.87 90.4599 85.87C83.8499 85.87 78.9499 84.03 75.7499 80.36C72.5399 76.68 70.9399 71.88 70.9399 65.94C70.9399 60 72.6499 54.9 76.0699 51.34C79.4899 47.78 84.3899 46 90.7499 46C93.3099 46 95.5899 46.25 97.5899 46.74C99.5999 47.23 101.17 47.79 102.31 48.42V57.03C100.7 56.05 98.8999 55.27 96.9099 54.7C94.9199 54.13 92.8699 53.85 90.7499 53.85C87.0199 53.85 84.2199 54.84 82.3799 56.83C80.5299 58.82 79.6099 61.85 79.6099 65.94C79.6099 70.03 80.4999 72.97 82.2899 74.99C84.0799 77.02 87.0199 78.03 91.1099 78.03C92.2899 78.03 93.6099 77.89 95.0599 77.62V70.6H88.3399V63.47H103.2V63.46Z" fill="#0B2442"/>
<path d="M138.47 77.8999C137.68 77.8999 137.16 77.6999 136.91 77.3099C136.65 76.9199 136.53 76.2699 136.53 75.3599V67.8699C136.53 63.7799 135.2 60.6899 132.55 58.5799C129.9 56.4799 125.56 55.4299 119.55 55.4299C117.43 55.4299 115.32 55.5799 113.24 55.8699C111.15 56.1599 109.54 56.4699 108.4 56.7799L108.46 64.5699C109.52 64.2199 111.04 63.8799 113.03 63.5699C115.02 63.2599 116.99 63.0999 118.96 63.0999C121.48 63.0999 123.38 63.3099 124.68 63.7199C125.98 64.1299 126.83 64.6699 127.25 65.3399C127.66 66.0099 127.87 66.8299 127.87 67.8199V68.6399H127.69C126.75 68.2899 125.52 67.9499 124 67.6399C122.49 67.3299 120.79 67.1699 118.9 67.1699C115.24 67.1699 112.37 67.9499 110.29 69.4999C108.2 71.0499 107.16 73.3199 107.16 76.3099C107.16 78.1199 107.63 79.7499 108.58 81.1999C109.52 82.6599 110.87 83.7999 112.62 84.6199C114.37 85.4399 116.38 85.8599 118.67 85.8599C121.18 85.8599 123.24 85.3499 124.83 84.3299C126.42 83.3099 127.47 81.8699 127.99 80.0199H128.23C129.17 83.9099 131.77 85.8599 136.02 85.8599C137.59 85.8599 138.91 85.6799 139.97 85.3299V77.7199C139.38 77.8399 138.89 77.8999 138.5 77.8999H138.47ZM127.85 75.7799C126.94 76.6499 125.9 77.2599 124.72 77.6399C123.54 78.0099 122.12 78.1999 120.47 78.1999C118.82 78.1999 117.73 77.9499 116.96 77.4599C116.19 76.9699 115.81 76.3299 115.81 75.5399C115.81 74.7499 116.14 74.2099 116.81 73.7999C117.48 73.3899 118.44 73.1799 119.7 73.1799H127.84V75.7799H127.85Z" fill="#0B2442"/>
<path d="M175.62 77.8499V85.3999C175.38 85.5199 174.94 85.6299 174.29 85.7199C173.64 85.8099 172.94 85.8699 172.2 85.8699C170 85.8699 167.95 85.4499 166.07 84.5999C164.18 83.7499 162.65 82.4299 161.47 80.6199C160.29 78.8099 159.7 76.4899 159.7 73.6599C159.7 71.6899 160.06 69.8299 160.79 68.0599C161.52 66.2899 162.27 64.9299 163.06 63.9899V63.8099H154.45C153.9 70.0999 152.84 77.2999 151.27 85.3899H141.54C142.8 81.3399 143.9 77.2099 144.84 73.0099C145.78 68.7999 146.45 65.1099 146.84 61.9199C145.78 61.3299 144.93 60.5299 144.3 59.5299C143.67 58.5299 143.36 57.3599 143.36 56.0199C143.36 54.1299 144.06 52.5999 145.45 51.4199C146.84 50.2399 148.84 49.6499 151.44 49.6499C152.7 49.6499 153.92 49.7699 155.1 49.9999C155.1 51.3399 155.06 53.2999 154.98 55.8999H172.44V63.7999C171.26 64.3899 170.29 65.4199 169.52 66.8999C168.75 68.3699 168.37 69.9999 168.37 71.7599C168.37 73.8499 168.86 75.3999 169.85 76.4199C170.83 77.4399 172.23 77.9499 174.04 77.9499C174.55 77.9499 175.08 77.9099 175.63 77.8299L175.62 77.8499Z" fill="#0B2442"/>
<path d="M189.31 90.46L182.84 85.77C178.46 91.8 169.37 87.59 168.98 87.41L167.26 91.01L169 87.41L165.52 94.61C167.98 95.8 171.83 96.96 175.91 96.96C180.66 96.96 185.73 95.39 189.3 90.46H189.31Z" fill="#0B2442"/>
<path d="M238.08 55.6699L237.02 70.2999L237.32 77.1399H236.85L232.25 61.0999H226L221.4 77.1399H220.99L221.23 70.2999L220.23 55.6699H211.5C211.5 56.6699 210.33 59.0099 209.27 59.3799C208.12 59.7799 206.61 59.4699 205.07 58.8699C204.51 58.6499 203.99 58.3399 203.5 57.9899C203.06 57.6699 202.59 57.3799 202.1 57.1099C199.72 55.8299 196.94 55.1899 193.76 55.1899C190.58 55.1899 187.79 55.8299 185.42 57.1099C183.04 58.3899 181.2 60.1799 179.91 62.4799C178.61 64.7799 177.96 67.4199 177.96 70.4099C177.96 73.3999 178.61 76.0399 179.91 78.3399C181.21 80.6399 183.04 82.4299 185.42 83.7099C187.8 84.9899 190.58 85.6299 193.76 85.6299C196.94 85.6299 199.73 84.9899 202.1 83.7099C204.48 82.4299 206.32 80.6399 207.61 78.3399C208.91 76.0399 209.56 73.3999 209.56 70.4099C209.56 69.3899 209.46 68.4199 209.31 67.4899C210.18 67.4099 211.06 67.2299 211.94 66.9199C212.3 66.7899 212.64 66.6399 212.98 66.4799L215.52 85.1599H225.43L229.09 72.5399H229.27L232.93 85.1599H242.84L246.79 55.6699H238.12H238.08ZM199.1 75.8099C197.92 77.1299 196.13 77.7899 193.73 77.7899C191.33 77.7899 189.54 77.1299 188.36 75.8099C187.18 74.4899 186.59 72.6899 186.59 70.4099C186.59 68.1299 187.18 66.3299 188.36 65.0099C189.54 63.6899 191.33 63.0399 193.73 63.0399C196.13 63.0399 197.92 63.6999 199.1 65.0099C200.28 66.3299 200.87 68.1299 200.87 70.4099C200.87 72.6899 200.28 74.4899 199.1 75.8099Z" fill="#0B2442"/>
<path d="M191.07 79.4701C193.246 79.4701 195.01 77.7061 195.01 75.5301C195.01 73.3541 193.246 71.5901 191.07 71.5901C188.894 71.5901 187.13 73.3541 187.13 75.5301C187.13 77.7061 188.894 79.4701 191.07 79.4701Z" fill="#0B2442"/>
</g>
<defs>
<clipPath id="clip0_218_1523">
<rect width="246.75" height="50.95" fill="white" transform="translate(0 46)"/>
</clipPath>
</defs>
</svg>
