<svg width="223" height="46" viewBox="0 0 223 46" fill="none" xmlns="http://www.w3.org/2000/svg">
<g clip-path="url(#clip0_207_6987)">
<path d="M86.6103 20.1368C87.2874 21.1423 87.6259 22.6421 87.6259 24.6277V37.7937H82.4889V24.9259C82.4889 24.372 82.3788 23.963 82.1673 23.6988C81.9557 23.4346 81.5833 23.3068 81.0586 23.3068C80.407 23.3068 79.8823 23.5795 79.4845 24.1334V37.7937H74.3475V24.9259C74.3475 24.372 74.2374 23.963 74.0259 23.6988C73.8143 23.4346 73.4419 23.3068 72.9172 23.3068C72.2656 23.3068 71.7409 23.5454 71.3431 24.0226V37.7937H66.2061V18.9267H69.3543L70.8522 21.9093H71.0046C71.3008 20.8014 71.817 19.9834 72.5448 19.438C73.2727 18.9011 74.1274 18.6284 75.126 18.6284C76.2516 18.6284 77.1487 18.8926 77.8257 19.4209C78.5028 19.9493 78.9598 20.7759 79.2137 21.9093H79.366C79.6114 20.8014 80.0854 19.9834 80.7709 19.438C81.4564 18.9011 82.3027 18.6284 83.3013 18.6284C84.8246 18.6284 85.9248 19.1312 86.6019 20.1368H86.6103Z" fill="white"/>
<path d="M109.427 27.721C109.427 24.6788 108.589 22.4035 106.913 20.8952C105.237 19.3868 102.893 18.6284 99.8718 18.6284C96.6982 18.6284 94.1509 19.455 92.2298 21.1167C90.3087 22.7785 89.3439 25.1901 89.3439 28.3602C89.3439 31.5302 90.2663 33.7544 92.1197 35.4928C93.9647 37.2312 96.8252 38.1004 100.701 38.1004C103.553 38.1004 106.075 37.7596 108.267 37.0778V32.2887C105.923 32.8937 103.443 33.192 100.845 33.192C99.144 33.192 97.8407 32.9704 96.9267 32.5273C96.0127 32.0841 95.4118 31.3683 95.1072 30.3628H109.418V27.721H109.427ZM95.0395 26.511C95.3103 25.4543 95.8519 24.6958 96.6474 24.2272C97.443 23.7585 98.5178 23.5284 99.8718 23.5284C101.226 23.5284 102.275 23.767 102.961 24.2442C103.646 24.7214 103.993 25.4798 103.993 26.511H95.0395Z" fill="white"/>
<path d="M131.803 23.7586V36.3962C129.501 37.5296 126.81 38.092 123.712 38.092C119.515 38.092 116.4 36.916 114.361 34.564C112.321 32.2121 111.305 29.1357 111.305 25.3351C111.305 21.5344 112.389 18.2706 114.564 15.9953C116.739 13.72 119.845 12.5781 123.89 12.5781C125.515 12.5781 126.962 12.7315 128.24 13.0468C129.518 13.3621 130.516 13.72 131.236 14.1205V19.6256C130.212 18.9949 129.069 18.5007 127.808 18.1343C126.547 17.7678 125.244 17.5889 123.89 17.5889C121.52 17.5889 119.743 18.228 118.567 19.4977C117.39 20.7675 116.806 22.7104 116.806 25.3265C116.806 27.9427 117.373 29.826 118.507 31.1213C119.641 32.4166 121.512 33.0642 124.11 33.0642C124.863 33.0642 125.693 32.979 126.623 32.8001V28.3091H122.35V23.7415H131.794L131.803 23.7586Z" fill="white"/>
<path d="M154.204 33.0048C153.705 33.0048 153.375 32.8769 153.214 32.6298C153.053 32.3827 152.969 31.9651 152.969 31.3856V26.5965C152.969 23.9803 152.122 22.0033 150.438 20.6568C148.754 19.3104 145.995 18.6372 142.178 18.6372C140.833 18.6372 139.496 18.7309 138.167 18.9184C136.838 19.1059 135.814 19.3019 135.095 19.5064L135.129 24.4831C135.806 24.253 136.771 24.0399 138.032 23.8439C139.292 23.6394 140.545 23.5457 141.798 23.5457C143.397 23.5457 144.607 23.6735 145.428 23.9377C146.249 24.2019 146.799 24.5512 147.062 24.9773C147.324 25.4034 147.451 25.9318 147.451 26.5624V27.0907H147.341C146.74 26.8606 145.961 26.6476 144.997 26.4516C144.032 26.2471 142.957 26.1533 141.755 26.1533C139.428 26.1533 137.608 26.6476 136.288 27.6446C134.959 28.6417 134.299 30.0903 134.299 31.9992C134.299 33.1581 134.596 34.1978 135.196 35.1266C135.797 36.0555 136.652 36.7884 137.761 37.3167C138.869 37.8451 140.156 38.1092 141.603 38.1092C143.202 38.1092 144.506 37.7854 145.521 37.1292C146.537 36.4731 147.205 35.5613 147.527 34.3767H147.679C148.28 36.8651 149.93 38.1092 152.622 38.1092C153.62 38.1092 154.458 37.9985 155.135 37.7684V32.9025C154.763 32.9792 154.45 33.0133 154.196 33.0133L154.204 33.0048ZM147.459 31.6498C146.884 32.2037 146.224 32.5957 145.47 32.8343C144.726 33.0729 143.82 33.1922 142.771 33.1922C141.721 33.1922 141.027 33.0388 140.545 32.7235C140.054 32.4082 139.817 31.9992 139.817 31.4964C139.817 30.9936 140.029 30.6442 140.452 30.3801C140.875 30.1159 141.484 29.9881 142.288 29.9881H147.459V31.6498Z" fill="white"/>
<path d="M177.808 32.9618V37.7936C177.655 37.8703 177.376 37.9385 176.961 37.9981C176.547 38.0578 176.107 38.0919 175.633 38.0919C174.236 38.0919 172.933 37.8192 171.74 37.2823C170.538 36.7454 169.565 35.8933 168.82 34.7343C168.075 33.5754 167.694 32.0926 167.694 30.286C167.694 29.0248 167.923 27.8318 168.388 26.6984C168.854 25.565 169.328 24.6958 169.827 24.0993V23.9885H164.36C164.013 28.0107 163.336 32.6124 162.337 37.7936H156.151C156.946 35.203 157.649 32.5613 158.25 29.8685C158.85 27.1756 159.274 24.8151 159.519 22.7784C158.842 22.4035 158.309 21.8922 157.911 21.253C157.513 20.6139 157.31 19.864 157.31 19.0118C157.31 17.8018 157.75 16.8218 158.639 16.0719C159.527 15.3134 160.797 14.9385 162.439 14.9385C163.234 14.9385 164.013 15.0152 164.766 15.1686C164.766 16.0207 164.741 17.2819 164.69 18.9437H175.785V23.997C175.032 24.372 174.414 25.0367 173.932 25.974C173.441 26.92 173.204 27.9511 173.204 29.0845C173.204 30.4224 173.517 31.4109 174.143 32.067C174.769 32.7232 175.658 33.047 176.8 33.047C177.122 33.047 177.461 33.0215 177.816 32.9703L177.808 32.9618Z" fill="white"/>
<path d="M186.508 41.0319L182.395 38.0322C179.61 41.8925 173.838 39.1997 173.593 39.0804L172.501 41.3898L173.61 39.0889L171.401 43.6906C172.967 44.449 175.413 45.1904 178.002 45.1904C181.024 45.1904 184.239 44.1849 186.516 41.0319H186.508Z" fill="white"/>
<path d="M217.491 18.7817L216.814 28.1385L217 32.5186H216.704L213.784 22.2585H209.815L206.895 32.5186H206.633L206.785 28.1385L206.15 18.7817H200.607C200.607 19.4208 199.862 20.9206 199.194 21.1592C198.466 21.4149 197.501 21.2189 196.528 20.8354C196.172 20.6905 195.842 20.4945 195.529 20.273C195.25 20.0684 194.954 19.881 194.641 19.7105C193.126 18.8924 191.365 18.4834 189.343 18.4834C187.32 18.4834 185.551 18.8924 184.045 19.7105C182.53 20.5286 181.362 21.6705 180.541 23.1448C179.72 24.619 179.306 26.3063 179.306 28.2237C179.306 30.141 179.72 31.8283 180.541 33.3026C181.362 34.7768 182.53 35.9187 184.045 36.7368C185.56 37.5549 187.32 37.9639 189.343 37.9639C191.365 37.9639 193.134 37.5549 194.641 36.7368C196.155 35.9187 197.323 34.7768 198.144 33.3026C198.965 31.8283 199.38 30.141 199.38 28.2237C199.38 27.5675 199.312 26.9539 199.219 26.3489C199.769 26.2978 200.328 26.187 200.886 25.9825C201.115 25.9058 201.335 25.8035 201.546 25.7013L203.163 37.6486H209.459L211.787 29.5786H211.897L214.224 37.6486H220.52L223.034 18.7817H217.524H217.491ZM192.728 31.6664C191.975 32.5101 190.841 32.9276 189.317 32.9276C187.794 32.9276 186.66 32.5101 185.907 31.6664C185.162 30.8228 184.781 29.6724 184.781 28.2152C184.781 26.7579 185.153 25.6075 185.907 24.7639C186.66 23.9202 187.794 23.5027 189.317 23.5027C190.841 23.5027 191.975 23.9202 192.728 24.7639C193.481 25.6075 193.853 26.7579 193.853 28.2152C193.853 29.6724 193.481 30.8228 192.728 31.6664Z" fill="white"/>
<path d="M187.625 34.0014C189.008 34.0014 190.13 32.872 190.13 31.479C190.13 30.0859 189.008 28.9565 187.625 28.9565C186.241 28.9565 185.12 30.0859 185.12 31.479C185.12 32.872 186.241 34.0014 187.625 34.0014Z" fill="white"/>
<path d="M21.8684 45.9915H15.1911V39.2679C18.881 39.2679 21.8684 42.276 21.8684 45.9915ZM7.59135 39.2679V45.9915H14.2687C14.2687 42.276 11.2812 39.2679 7.59135 39.2679ZM-0.00842285 39.2679V45.9915H4.01465e-05H6.67735C6.67735 42.276 3.68991 39.2679 4.01465e-05 39.2679H-0.00842285ZM43.5506 32.1267C44.9216 36.5069 45.6664 41.1682 45.6664 46H22.8417C22.8417 41.5858 21.6061 37.4613 19.4649 33.9589C18.3055 34.9303 16.816 35.5183 15.1911 35.5183V28.8203C14.9203 28.5732 14.641 28.3431 14.3617 28.113C13.0584 30.4139 10.6126 31.9648 7.79446 31.9648V24.372C7.40516 24.2271 6.99894 24.0993 6.60118 23.9715C6.12725 27.2182 3.35985 29.7151 4.01465e-05 29.7151V0C14.8018 0 27.9449 7.09003 36.2894 18.0745C43.6691 15.8844 51.7344 19.3527 55.1449 26.5706L43.5591 32.1267H43.5506ZM3.9438 3.0678C3.9438 2.56502 3.54604 2.16451 3.04672 2.16451C2.5474 2.16451 2.14964 2.56502 2.14964 3.0678C2.14964 3.57058 2.5474 3.9711 3.04672 3.9711C3.54604 3.9711 3.9438 3.57058 3.9438 3.0678ZM31.2031 23C31.2031 21.1423 29.7052 19.6339 27.8602 19.6339C26.0153 19.6339 24.5173 21.1423 24.5173 23C24.5173 24.8577 26.0153 26.3661 27.8602 26.3661C29.7052 26.3661 31.2031 24.8577 31.2031 23ZM33.0142 44.7729L40.0554 31.1041L39.0145 30.5587L31.9732 44.2275L33.0142 44.7729ZM36.5856 44.7729L41.2572 35.6973L40.2162 35.1519L35.5446 44.2275L36.5856 44.7729ZM42.5943 39.1571L41.5534 38.6117L38.659 44.2275L39.7 44.7729L42.5943 39.1571Z" fill="white"/>
</g>
<defs>
<clipPath id="clip0_207_6987">
<rect width="223" height="46" fill="white"/>
</clipPath>
</defs>
</svg>
