<svg width="96" height="103" viewBox="0 0 96 103" fill="none" xmlns="http://www.w3.org/2000/svg">
<path d="M38.5089 4.53878C39.9378 2.03208 43.1283 1.15838 45.635 2.5873L91.0228 28.4603C93.5295 29.8893 94.4032 33.0797 92.9743 35.5864L57.4913 97.8326C56.0623 100.339 52.8719 101.213 50.3652 99.7841L4.97734 73.9111C2.47064 72.4821 1.59693 69.2917 3.02586 66.785L38.5089 4.53878Z" fill="#0B2442"/>
<path fill-rule="evenodd" clip-rule="evenodd" d="M40.9334 21.3841C41.7499 19.9517 43.5731 19.4525 45.0055 20.269L75.8043 37.8257C77.2368 38.6422 77.736 40.4653 76.9195 41.8977C76.1029 43.3301 74.2798 43.8294 72.8474 43.0129L42.0485 25.4562C40.6161 24.6396 40.1169 22.8165 40.9334 21.3841Z" fill="white"/>
<path fill-rule="evenodd" clip-rule="evenodd" d="M40.6734 38.4178C41.4899 36.9854 43.313 36.4861 44.7454 37.3027L68.7362 50.9784C70.1686 51.795 70.6678 53.6181 69.8513 55.0505C69.0348 56.4829 67.2116 56.9821 65.7792 56.1656L41.7885 42.4899C40.3561 41.6733 39.8569 39.8502 40.6734 38.4178Z" fill="white"/>
<path fill-rule="evenodd" clip-rule="evenodd" d="M26.1487 47.3202C26.9653 45.8878 28.7884 45.3885 30.2208 46.205L53.5631 59.5112C54.9955 60.3277 55.4948 62.1508 54.6782 63.5832C53.8617 65.0156 52.0386 65.5149 50.6062 64.6983L27.2639 51.3922C25.8315 50.5757 25.3322 48.7526 26.1487 47.3202Z" fill="white"/>
<path fill-rule="evenodd" clip-rule="evenodd" d="M26.5373 64.724C27.3538 63.2916 29.1769 62.7923 30.6093 63.6088L53.9517 76.915C55.3841 77.7315 55.8833 79.5546 55.0668 80.987C54.2503 82.4194 52.4271 82.9187 50.9947 82.1021L27.6524 68.796C26.22 67.9795 25.7208 66.1564 26.5373 64.724Z" fill="white"/>
<path d="M39.5615 37.3547C38.6429 38.9661 36.5919 39.5278 34.9804 38.6092C33.369 37.6906 32.8073 35.6396 33.7259 34.0281C34.6445 32.4167 36.6955 31.855 38.3069 32.7736C39.9184 33.6922 40.4801 35.7432 39.5615 37.3547Z" fill="white"/>
<path d="M62.6439 67.6945C61.7253 69.306 59.6743 69.8676 58.0628 68.949C56.4514 68.0304 55.8897 65.9794 56.8083 64.368C57.7269 62.7565 59.7779 62.1949 61.3893 63.1135C63.0008 64.0321 63.5625 66.0831 62.6439 67.6945Z" fill="white"/>
<path d="M24.7768 63.2907C23.8582 64.9022 21.8072 65.4638 20.1957 64.5452C18.5843 63.6266 18.0226 61.5756 18.9412 59.9642C19.8598 58.3527 21.9108 57.7911 23.5223 58.7097C25.1337 59.6283 25.6954 61.6793 24.7768 63.2907Z" fill="white"/>
</svg>
